<svg width="194" height="194" viewBox="0 0 194 194" fill="none" xmlns="http://www.w3.org/2000/svg">
<circle cx="97" cy="97" r="97" fill="white"/>
<circle cx="97.5" cy="97.5" r="88.5" fill="white" stroke="#DADADA" stroke-width="2" stroke-linecap="square" stroke-linejoin="round" stroke-dasharray="12 12"/>
<path d="M36.1378 72H38.9055V67.3594H40.9254L43.4055 72H46.4609L43.6804 66.9119C45.1697 66.2727 45.9943 64.9751 45.9943 63.1854C45.9943 60.5838 44.2749 58.9091 41.3026 58.9091H36.1378V72ZM38.9055 65.1349V61.1719H40.772C42.37 61.1719 43.1435 61.8814 43.1435 63.1854C43.1435 64.483 42.37 65.1349 40.7848 65.1349H38.9055ZM47.9503 72H50.718V67.7557H53.0447C56.0554 67.7557 57.8068 65.9595 57.8068 63.3452C57.8068 60.7436 56.0874 58.9091 53.1151 58.9091H47.9503V72ZM50.718 65.5376V61.1719H52.5845C54.1825 61.1719 54.956 62.0412 54.956 63.3452C54.956 64.6428 54.1825 65.5376 52.5973 65.5376H50.718Z" fill="#F73D27"/>
<path d="M35.4091 131H46.9773L65.8182 93.5909V84.4545H32.2273V93.5227H54.1818V93.8182L35.4091 131ZM88.892 83.8182C78.1648 83.7955 70.8239 90.5227 70.8693 100.159C70.892 108.727 76.733 114.955 85.0739 114.955C90.2784 114.955 94.9602 112.455 96.892 108.273H97.1648C97.142 116.75 94.3466 122.045 88.6648 122.045C85.5284 122.045 83.1193 120.5 82.4375 117.386H71.3693C72.2102 125.409 78.8466 131.636 88.6648 131.636C100.528 131.636 108.301 122.295 108.256 106.773C108.233 89.9545 99.0966 83.8409 88.892 83.8182ZM88.9602 92.4545C93.0739 92.4545 96.0966 95.7045 96.142 99.7727C96.1648 103.864 93.0057 107.136 88.9148 107.136C84.7557 107.136 81.8011 103.955 81.7784 99.7955C81.733 95.6591 84.8011 92.4545 88.9602 92.4545ZM118.773 131.659C121.886 131.659 124.636 129.023 124.682 125.75C124.636 122.523 121.886 119.909 118.773 119.909C115.5 119.909 112.818 122.523 112.864 125.75C112.818 129.023 115.5 131.659 118.773 131.659ZM136.358 113.307C132.335 113.298 129.582 115.821 129.599 119.435C129.608 122.648 131.798 124.983 134.926 124.983C136.878 124.983 138.634 124.045 139.358 122.477H139.46C139.452 125.656 138.403 127.642 136.273 127.642C135.097 127.642 134.193 127.062 133.938 125.895H129.787C130.102 128.903 132.591 131.239 136.273 131.239C140.722 131.239 143.636 127.736 143.619 121.915C143.611 115.608 140.185 113.315 136.358 113.307ZM136.384 116.545C137.926 116.545 139.06 117.764 139.077 119.29C139.085 120.824 137.901 122.051 136.366 122.051C134.807 122.051 133.699 120.858 133.69 119.298C133.673 117.747 134.824 116.545 136.384 116.545ZM152.506 113.307C148.484 113.298 145.731 115.821 145.748 119.435C145.756 122.648 147.947 124.983 151.075 124.983C153.026 124.983 154.782 124.045 155.506 122.477H155.609C155.6 125.656 154.552 127.642 152.421 127.642C151.245 127.642 150.342 127.062 150.086 125.895H145.935C146.251 128.903 148.739 131.239 152.421 131.239C156.87 131.239 159.785 127.736 159.768 121.915C159.759 115.608 156.333 113.315 152.506 113.307ZM152.532 116.545C154.075 116.545 155.208 117.764 155.225 119.29C155.234 120.824 154.049 122.051 152.515 122.051C150.955 122.051 149.847 120.858 149.839 119.298C149.822 117.747 150.972 116.545 152.532 116.545ZM168.655 113.307C164.632 113.298 161.879 115.821 161.896 119.435C161.905 122.648 164.095 124.983 167.223 124.983C169.175 124.983 170.93 124.045 171.655 122.477H171.757C171.749 125.656 170.7 127.642 168.57 127.642C167.393 127.642 166.49 127.062 166.234 125.895H162.084C162.399 128.903 164.888 131.239 168.57 131.239C173.018 131.239 175.933 127.736 175.916 121.915C175.908 115.608 172.482 113.315 168.655 113.307ZM168.68 116.545C170.223 116.545 171.357 117.764 171.374 119.29C171.382 120.824 170.197 122.051 168.663 122.051C167.104 122.051 165.996 120.858 165.987 119.298C165.97 117.747 167.121 116.545 168.68 116.545Z" fill="#F73D27"/>
</svg>
